<mxfile host="app.diagrams.net" agent="Mozilla/5.0 (Windows NT 10.0; Win64; x64) AppleWebKit/537.36 (KHTML, like Gecko) Chrome/136.0.0.0 Safari/537.36 Edg/136.0.0.0" version="27.1.4">
  <diagram name="Página-1" id="Bx-78Z-xnegMuT8bLgUl">
    <mxGraphModel grid="1" page="1" gridSize="10" guides="1" tooltips="1" connect="1" arrows="1" fold="1" pageScale="1" pageWidth="1169" pageHeight="827" math="0" shadow="0">
      <root>
        <mxCell id="0" />
        <mxCell id="1" parent="0" />
        <mxCell id="CUGscK_CF5bCiDeowx8U-2" value="Departamentos" style="whiteSpace=wrap;html=1;align=center;" vertex="1" parent="1">
          <mxGeometry x="490" y="130" width="100" height="40" as="geometry" />
        </mxCell>
        <mxCell id="CUGscK_CF5bCiDeowx8U-3" value="Número departamento" style="ellipse;whiteSpace=wrap;html=1;align=center;" vertex="1" parent="1">
          <mxGeometry x="150" y="40" width="100" height="40" as="geometry" />
        </mxCell>
        <mxCell id="CUGscK_CF5bCiDeowx8U-7" value="" style="endArrow=none;html=1;rounded=0;exitX=1;exitY=0.5;exitDx=0;exitDy=0;entryX=0;entryY=0.5;entryDx=0;entryDy=0;" edge="1" parent="1" source="CUGscK_CF5bCiDeowx8U-3" target="CUGscK_CF5bCiDeowx8U-2">
          <mxGeometry relative="1" as="geometry">
            <mxPoint x="460" y="150" as="sourcePoint" />
            <mxPoint x="620" y="150" as="targetPoint" />
          </mxGeometry>
        </mxCell>
        <mxCell id="CUGscK_CF5bCiDeowx8U-8" value="Nome departamento" style="ellipse;whiteSpace=wrap;html=1;align=center;" vertex="1" parent="1">
          <mxGeometry x="150" y="110" width="100" height="40" as="geometry" />
        </mxCell>
        <mxCell id="CUGscK_CF5bCiDeowx8U-12" value="" style="endArrow=none;html=1;rounded=0;exitX=1;exitY=0.5;exitDx=0;exitDy=0;entryX=0;entryY=0.5;entryDx=0;entryDy=0;" edge="1" parent="1" source="CUGscK_CF5bCiDeowx8U-8" target="CUGscK_CF5bCiDeowx8U-2">
          <mxGeometry relative="1" as="geometry">
            <mxPoint x="460" y="150" as="sourcePoint" />
            <mxPoint x="620" y="150" as="targetPoint" />
          </mxGeometry>
        </mxCell>
        <mxCell id="CUGscK_CF5bCiDeowx8U-14" value="" style="endArrow=none;html=1;rounded=0;exitX=1;exitY=0.5;exitDx=0;exitDy=0;entryX=0;entryY=0.5;entryDx=0;entryDy=0;" edge="1" parent="1" source="CUGscK_CF5bCiDeowx8U-151" target="CUGscK_CF5bCiDeowx8U-2">
          <mxGeometry relative="1" as="geometry">
            <mxPoint x="250" y="200" as="sourcePoint" />
            <mxPoint x="620" y="150" as="targetPoint" />
          </mxGeometry>
        </mxCell>
        <mxCell id="CUGscK_CF5bCiDeowx8U-15" value="Gerente" style="ellipse;whiteSpace=wrap;html=1;align=center;" vertex="1" parent="1">
          <mxGeometry x="150" y="250" width="100" height="40" as="geometry" />
        </mxCell>
        <mxCell id="CUGscK_CF5bCiDeowx8U-16" value="" style="endArrow=none;html=1;rounded=0;exitX=1;exitY=0.5;exitDx=0;exitDy=0;entryX=0;entryY=0.5;entryDx=0;entryDy=0;" edge="1" parent="1" source="CUGscK_CF5bCiDeowx8U-15" target="CUGscK_CF5bCiDeowx8U-2">
          <mxGeometry relative="1" as="geometry">
            <mxPoint x="460" y="150" as="sourcePoint" />
            <mxPoint x="620" y="150" as="targetPoint" />
          </mxGeometry>
        </mxCell>
        <mxCell id="CUGscK_CF5bCiDeowx8U-19" value="" style="endArrow=none;html=1;rounded=0;exitX=1;exitY=0.5;exitDx=0;exitDy=0;entryX=0;entryY=0.5;entryDx=0;entryDy=0;" edge="1" parent="1" source="CUGscK_CF5bCiDeowx8U-2" target="CUGscK_CF5bCiDeowx8U-21">
          <mxGeometry relative="1" as="geometry">
            <mxPoint x="590" y="150" as="sourcePoint" />
            <mxPoint x="750" y="150" as="targetPoint" />
          </mxGeometry>
        </mxCell>
        <mxCell id="CUGscK_CF5bCiDeowx8U-20" value="(0, 1)" style="text;html=1;align=center;verticalAlign=middle;resizable=0;points=[];autosize=1;strokeColor=none;fillColor=none;" vertex="1" parent="1">
          <mxGeometry x="589" y="118" width="50" height="30" as="geometry" />
        </mxCell>
        <mxCell id="CUGscK_CF5bCiDeowx8U-21" value="Gerenciado / Gerencia" style="shape=rhombus;perimeter=rhombusPerimeter;whiteSpace=wrap;html=1;align=center;" vertex="1" parent="1">
          <mxGeometry x="700" y="120" width="150" height="60" as="geometry" />
        </mxCell>
        <mxCell id="CUGscK_CF5bCiDeowx8U-22" value="Colaboradores" style="whiteSpace=wrap;html=1;align=center;" vertex="1" parent="1">
          <mxGeometry x="1230" y="130" width="100" height="40" as="geometry" />
        </mxCell>
        <mxCell id="CUGscK_CF5bCiDeowx8U-23" value="Contem / Pertence" style="shape=rhombus;perimeter=rhombusPerimeter;whiteSpace=wrap;html=1;align=center;" vertex="1" parent="1">
          <mxGeometry x="710" y="280" width="150" height="60" as="geometry" />
        </mxCell>
        <mxCell id="CUGscK_CF5bCiDeowx8U-24" value="" style="endArrow=none;html=1;rounded=0;entryX=0;entryY=0.5;entryDx=0;entryDy=0;exitX=1;exitY=0.5;exitDx=0;exitDy=0;" edge="1" parent="1" source="CUGscK_CF5bCiDeowx8U-2" target="CUGscK_CF5bCiDeowx8U-23">
          <mxGeometry relative="1" as="geometry">
            <mxPoint x="590" y="230" as="sourcePoint" />
            <mxPoint x="620" y="150" as="targetPoint" />
          </mxGeometry>
        </mxCell>
        <mxCell id="CUGscK_CF5bCiDeowx8U-25" value="" style="endArrow=none;html=1;rounded=0;entryX=0;entryY=0.5;entryDx=0;entryDy=0;exitX=1;exitY=0.5;exitDx=0;exitDy=0;" edge="1" parent="1" source="CUGscK_CF5bCiDeowx8U-23" target="CUGscK_CF5bCiDeowx8U-22">
          <mxGeometry relative="1" as="geometry">
            <mxPoint x="460" y="150" as="sourcePoint" />
            <mxPoint x="620" y="150" as="targetPoint" />
          </mxGeometry>
        </mxCell>
        <mxCell id="CUGscK_CF5bCiDeowx8U-27" value="" style="endArrow=none;html=1;rounded=0;exitX=1;exitY=0.5;exitDx=0;exitDy=0;entryX=0;entryY=0.5;entryDx=0;entryDy=0;" edge="1" parent="1" source="CUGscK_CF5bCiDeowx8U-21" target="CUGscK_CF5bCiDeowx8U-22">
          <mxGeometry relative="1" as="geometry">
            <mxPoint x="730" y="60" as="sourcePoint" />
            <mxPoint x="890" y="60" as="targetPoint" />
          </mxGeometry>
        </mxCell>
        <mxCell id="CUGscK_CF5bCiDeowx8U-28" value="(1, 1)" style="text;html=1;align=center;verticalAlign=middle;resizable=0;points=[];autosize=1;strokeColor=none;fillColor=none;" vertex="1" parent="1">
          <mxGeometry x="589" y="150" width="50" height="30" as="geometry" />
        </mxCell>
        <mxCell id="CUGscK_CF5bCiDeowx8U-29" value="(1, 1)" style="text;html=1;align=center;verticalAlign=middle;resizable=0;points=[];autosize=1;strokeColor=none;fillColor=none;" vertex="1" parent="1">
          <mxGeometry x="870" y="128" width="50" height="30" as="geometry" />
        </mxCell>
        <mxCell id="CUGscK_CF5bCiDeowx8U-30" value="(2, n)" style="text;html=1;align=center;verticalAlign=middle;resizable=0;points=[];autosize=1;strokeColor=none;fillColor=none;" vertex="1" parent="1">
          <mxGeometry x="871" y="158" width="50" height="30" as="geometry" />
        </mxCell>
        <mxCell id="CUGscK_CF5bCiDeowx8U-31" value="Email" style="ellipse;whiteSpace=wrap;html=1;align=center;" vertex="1" parent="1">
          <mxGeometry x="1440" y="390" width="100" height="40" as="geometry" />
        </mxCell>
        <mxCell id="CUGscK_CF5bCiDeowx8U-32" value="Cargo" style="ellipse;whiteSpace=wrap;html=1;align=center;" vertex="1" parent="1">
          <mxGeometry x="1500" y="310" width="100" height="40" as="geometry" />
        </mxCell>
        <mxCell id="CUGscK_CF5bCiDeowx8U-33" value="Salário" style="ellipse;whiteSpace=wrap;html=1;align=center;" vertex="1" parent="1">
          <mxGeometry x="1500" y="250" width="100" height="40" as="geometry" />
        </mxCell>
        <mxCell id="CUGscK_CF5bCiDeowx8U-34" value="Telefone" style="ellipse;whiteSpace=wrap;html=1;align=center;" vertex="1" parent="1">
          <mxGeometry x="1500" y="188" width="100" height="40" as="geometry" />
        </mxCell>
        <mxCell id="CUGscK_CF5bCiDeowx8U-35" value="CPF" style="ellipse;whiteSpace=wrap;html=1;align=center;" vertex="1" parent="1">
          <mxGeometry x="1490" y="130" width="100" height="40" as="geometry" />
        </mxCell>
        <mxCell id="CUGscK_CF5bCiDeowx8U-36" value="Nome" style="ellipse;whiteSpace=wrap;html=1;align=center;" vertex="1" parent="1">
          <mxGeometry x="1500" y="70" width="100" height="40" as="geometry" />
        </mxCell>
        <mxCell id="CUGscK_CF5bCiDeowx8U-39" value="" style="endArrow=none;html=1;rounded=0;exitX=0.5;exitY=1;exitDx=0;exitDy=0;entryX=1;entryY=0.5;entryDx=0;entryDy=0;" edge="1" parent="1" source="CUGscK_CF5bCiDeowx8U-36" target="CUGscK_CF5bCiDeowx8U-22">
          <mxGeometry relative="1" as="geometry">
            <mxPoint x="990" y="360" as="sourcePoint" />
            <mxPoint x="1150" y="360" as="targetPoint" />
          </mxGeometry>
        </mxCell>
        <mxCell id="CUGscK_CF5bCiDeowx8U-40" value="" style="endArrow=none;html=1;rounded=0;exitX=0.5;exitY=1;exitDx=0;exitDy=0;entryX=1;entryY=0.5;entryDx=0;entryDy=0;" edge="1" parent="1" source="CUGscK_CF5bCiDeowx8U-35" target="CUGscK_CF5bCiDeowx8U-22">
          <mxGeometry relative="1" as="geometry">
            <mxPoint x="890" y="350" as="sourcePoint" />
            <mxPoint x="1050" y="350" as="targetPoint" />
          </mxGeometry>
        </mxCell>
        <mxCell id="CUGscK_CF5bCiDeowx8U-41" value="" style="endArrow=none;html=1;rounded=0;exitX=0;exitY=0.5;exitDx=0;exitDy=0;entryX=1;entryY=0.5;entryDx=0;entryDy=0;" edge="1" parent="1" source="CUGscK_CF5bCiDeowx8U-34" target="CUGscK_CF5bCiDeowx8U-22">
          <mxGeometry relative="1" as="geometry">
            <mxPoint x="860" y="340" as="sourcePoint" />
            <mxPoint x="1020" y="340" as="targetPoint" />
          </mxGeometry>
        </mxCell>
        <mxCell id="CUGscK_CF5bCiDeowx8U-42" value="" style="endArrow=none;html=1;rounded=0;exitX=0;exitY=0.5;exitDx=0;exitDy=0;entryX=1;entryY=0.5;entryDx=0;entryDy=0;" edge="1" parent="1" source="CUGscK_CF5bCiDeowx8U-33" target="CUGscK_CF5bCiDeowx8U-22">
          <mxGeometry relative="1" as="geometry">
            <mxPoint x="900" y="350" as="sourcePoint" />
            <mxPoint x="1060" y="350" as="targetPoint" />
          </mxGeometry>
        </mxCell>
        <mxCell id="CUGscK_CF5bCiDeowx8U-43" value="" style="endArrow=none;html=1;rounded=0;exitX=-0.01;exitY=0.35;exitDx=0;exitDy=0;exitPerimeter=0;entryX=1;entryY=0.5;entryDx=0;entryDy=0;" edge="1" parent="1" source="CUGscK_CF5bCiDeowx8U-32" target="CUGscK_CF5bCiDeowx8U-22">
          <mxGeometry relative="1" as="geometry">
            <mxPoint x="890" y="350" as="sourcePoint" />
            <mxPoint x="1050" y="350" as="targetPoint" />
          </mxGeometry>
        </mxCell>
        <mxCell id="CUGscK_CF5bCiDeowx8U-44" value="" style="endArrow=none;html=1;rounded=0;exitX=1;exitY=0.5;exitDx=0;exitDy=0;entryX=0.5;entryY=0;entryDx=0;entryDy=0;" edge="1" parent="1" source="CUGscK_CF5bCiDeowx8U-22" target="CUGscK_CF5bCiDeowx8U-31">
          <mxGeometry relative="1" as="geometry">
            <mxPoint x="870" y="350" as="sourcePoint" />
            <mxPoint x="1030" y="350" as="targetPoint" />
          </mxGeometry>
        </mxCell>
        <mxCell id="CUGscK_CF5bCiDeowx8U-47" value="Gerenciar / Gerenciados" style="shape=rhombus;perimeter=rhombusPerimeter;whiteSpace=wrap;html=1;align=center;" vertex="1" parent="1">
          <mxGeometry x="1205" y="370" width="150" height="60" as="geometry" />
        </mxCell>
        <mxCell id="CUGscK_CF5bCiDeowx8U-50" value="Clientes" style="whiteSpace=wrap;html=1;align=center;" vertex="1" parent="1">
          <mxGeometry x="1231" y="669" width="100" height="40" as="geometry" />
        </mxCell>
        <mxCell id="CUGscK_CF5bCiDeowx8U-53" value="" style="endArrow=none;html=1;rounded=0;exitX=0.5;exitY=1;exitDx=0;exitDy=0;entryX=0.5;entryY=0;entryDx=0;entryDy=0;" edge="1" parent="1" source="CUGscK_CF5bCiDeowx8U-47" target="CUGscK_CF5bCiDeowx8U-50">
          <mxGeometry relative="1" as="geometry">
            <mxPoint x="790" y="650" as="sourcePoint" />
            <mxPoint x="950" y="650" as="targetPoint" />
          </mxGeometry>
        </mxCell>
        <mxCell id="CUGscK_CF5bCiDeowx8U-54" value="(1, 1)" style="text;html=1;align=center;verticalAlign=middle;resizable=0;points=[];autosize=1;strokeColor=none;fillColor=none;" vertex="1" parent="1">
          <mxGeometry x="930" y="170" width="50" height="30" as="geometry" />
        </mxCell>
        <mxCell id="CUGscK_CF5bCiDeowx8U-55" value="(0, n)" style="text;html=1;align=center;verticalAlign=middle;resizable=0;points=[];autosize=1;strokeColor=none;fillColor=none;" vertex="1" parent="1">
          <mxGeometry x="1238" y="640" width="50" height="30" as="geometry" />
        </mxCell>
        <mxCell id="CUGscK_CF5bCiDeowx8U-58" value="Email" style="ellipse;whiteSpace=wrap;html=1;align=center;" vertex="1" parent="1">
          <mxGeometry x="970" y="1120" width="100" height="40" as="geometry" />
        </mxCell>
        <mxCell id="CUGscK_CF5bCiDeowx8U-59" value="Data Nascimento" style="ellipse;whiteSpace=wrap;html=1;align=center;" vertex="1" parent="1">
          <mxGeometry x="960" y="1030" width="100" height="40" as="geometry" />
        </mxCell>
        <mxCell id="CUGscK_CF5bCiDeowx8U-60" value="Endereço" style="ellipse;whiteSpace=wrap;html=1;align=center;" vertex="1" parent="1">
          <mxGeometry x="920" y="960" width="100" height="40" as="geometry" />
        </mxCell>
        <mxCell id="CUGscK_CF5bCiDeowx8U-61" value="Telefone" style="ellipse;whiteSpace=wrap;html=1;align=center;" vertex="1" parent="1">
          <mxGeometry x="810" y="739" width="100" height="40" as="geometry" />
        </mxCell>
        <mxCell id="CUGscK_CF5bCiDeowx8U-62" value="CPF" style="ellipse;whiteSpace=wrap;html=1;align=center;" vertex="1" parent="1">
          <mxGeometry x="850" y="809" width="100" height="40" as="geometry" />
        </mxCell>
        <mxCell id="CUGscK_CF5bCiDeowx8U-63" value="Nome" style="ellipse;whiteSpace=wrap;html=1;align=center;" vertex="1" parent="1">
          <mxGeometry x="820" y="880" width="100" height="40" as="geometry" />
        </mxCell>
        <mxCell id="CUGscK_CF5bCiDeowx8U-65" value="" style="endArrow=none;html=1;rounded=0;exitX=1;exitY=0.5;exitDx=0;exitDy=0;entryX=0;entryY=0.5;entryDx=0;entryDy=0;" edge="1" parent="1" source="CUGscK_CF5bCiDeowx8U-61" target="CUGscK_CF5bCiDeowx8U-50">
          <mxGeometry relative="1" as="geometry">
            <mxPoint x="1100" y="749" as="sourcePoint" />
            <mxPoint x="1260" y="749" as="targetPoint" />
          </mxGeometry>
        </mxCell>
        <mxCell id="CUGscK_CF5bCiDeowx8U-66" value="" style="endArrow=none;html=1;rounded=0;entryX=0;entryY=0.5;entryDx=0;entryDy=0;exitX=1;exitY=0.5;exitDx=0;exitDy=0;" edge="1" parent="1" source="CUGscK_CF5bCiDeowx8U-62" target="CUGscK_CF5bCiDeowx8U-50">
          <mxGeometry relative="1" as="geometry">
            <mxPoint x="1100" y="749" as="sourcePoint" />
            <mxPoint x="1260" y="749" as="targetPoint" />
          </mxGeometry>
        </mxCell>
        <mxCell id="CUGscK_CF5bCiDeowx8U-67" value="" style="endArrow=none;html=1;rounded=0;exitX=1;exitY=0.5;exitDx=0;exitDy=0;entryX=0;entryY=0.5;entryDx=0;entryDy=0;" edge="1" parent="1" source="CUGscK_CF5bCiDeowx8U-63" target="CUGscK_CF5bCiDeowx8U-50">
          <mxGeometry relative="1" as="geometry">
            <mxPoint x="1100" y="749" as="sourcePoint" />
            <mxPoint x="1260" y="749" as="targetPoint" />
          </mxGeometry>
        </mxCell>
        <mxCell id="CUGscK_CF5bCiDeowx8U-69" value="" style="endArrow=none;html=1;rounded=0;exitX=0.5;exitY=0;exitDx=0;exitDy=0;entryX=0;entryY=0.5;entryDx=0;entryDy=0;" edge="1" parent="1" source="CUGscK_CF5bCiDeowx8U-60" target="CUGscK_CF5bCiDeowx8U-50">
          <mxGeometry relative="1" as="geometry">
            <mxPoint x="1100" y="749" as="sourcePoint" />
            <mxPoint x="1260" y="749" as="targetPoint" />
          </mxGeometry>
        </mxCell>
        <mxCell id="CUGscK_CF5bCiDeowx8U-71" value="CEP" style="ellipse;whiteSpace=wrap;html=1;align=center;" vertex="1" parent="1">
          <mxGeometry x="560" y="940" width="100" height="40" as="geometry" />
        </mxCell>
        <mxCell id="CUGscK_CF5bCiDeowx8U-73" value="Cidade" style="ellipse;whiteSpace=wrap;html=1;align=center;" vertex="1" parent="1">
          <mxGeometry x="635" y="1060" width="100" height="40" as="geometry" />
        </mxCell>
        <mxCell id="CUGscK_CF5bCiDeowx8U-74" value="Rua" style="ellipse;whiteSpace=wrap;html=1;align=center;" vertex="1" parent="1">
          <mxGeometry x="675" y="1140" width="100" height="40" as="geometry" />
        </mxCell>
        <mxCell id="CUGscK_CF5bCiDeowx8U-75" value="Estado" style="ellipse;whiteSpace=wrap;html=1;align=center;" vertex="1" parent="1">
          <mxGeometry x="575" y="1000" width="100" height="40" as="geometry" />
        </mxCell>
        <mxCell id="CUGscK_CF5bCiDeowx8U-77" value="" style="endArrow=none;html=1;rounded=0;entryX=0;entryY=0.5;entryDx=0;entryDy=0;exitX=1;exitY=0.5;exitDx=0;exitDy=0;" edge="1" parent="1" source="CUGscK_CF5bCiDeowx8U-71" target="CUGscK_CF5bCiDeowx8U-60">
          <mxGeometry relative="1" as="geometry">
            <mxPoint x="790" y="850" as="sourcePoint" />
            <mxPoint x="950" y="850" as="targetPoint" />
          </mxGeometry>
        </mxCell>
        <mxCell id="CUGscK_CF5bCiDeowx8U-78" value="" style="endArrow=none;html=1;rounded=0;entryX=0;entryY=0.5;entryDx=0;entryDy=0;exitX=1;exitY=0.5;exitDx=0;exitDy=0;" edge="1" parent="1" source="CUGscK_CF5bCiDeowx8U-75" target="CUGscK_CF5bCiDeowx8U-60">
          <mxGeometry relative="1" as="geometry">
            <mxPoint x="790" y="850" as="sourcePoint" />
            <mxPoint x="950" y="850" as="targetPoint" />
          </mxGeometry>
        </mxCell>
        <mxCell id="CUGscK_CF5bCiDeowx8U-79" value="" style="endArrow=none;html=1;rounded=0;exitX=1;exitY=0.5;exitDx=0;exitDy=0;entryX=0;entryY=0.5;entryDx=0;entryDy=0;" edge="1" parent="1" source="CUGscK_CF5bCiDeowx8U-73" target="CUGscK_CF5bCiDeowx8U-60">
          <mxGeometry relative="1" as="geometry">
            <mxPoint x="790" y="850" as="sourcePoint" />
            <mxPoint x="950" y="850" as="targetPoint" />
          </mxGeometry>
        </mxCell>
        <mxCell id="CUGscK_CF5bCiDeowx8U-80" value="" style="endArrow=none;html=1;rounded=0;entryX=0;entryY=0.5;entryDx=0;entryDy=0;exitX=0.97;exitY=0.3;exitDx=0;exitDy=0;exitPerimeter=0;" edge="1" parent="1" source="CUGscK_CF5bCiDeowx8U-74" target="CUGscK_CF5bCiDeowx8U-60">
          <mxGeometry relative="1" as="geometry">
            <mxPoint x="790" y="850" as="sourcePoint" />
            <mxPoint x="950" y="850" as="targetPoint" />
          </mxGeometry>
        </mxCell>
        <mxCell id="CUGscK_CF5bCiDeowx8U-82" value="" style="endArrow=none;html=1;rounded=0;entryX=0;entryY=0.5;entryDx=0;entryDy=0;exitX=1;exitY=0.5;exitDx=0;exitDy=0;" edge="1" parent="1" source="CUGscK_CF5bCiDeowx8U-22" target="CUGscK_CF5bCiDeowx8U-152">
          <mxGeometry relative="1" as="geometry">
            <mxPoint x="1120" y="150" as="sourcePoint" />
            <mxPoint x="1440" y="30" as="targetPoint" />
          </mxGeometry>
        </mxCell>
        <mxCell id="CUGscK_CF5bCiDeowx8U-83" value="" style="endArrow=none;html=1;rounded=0;exitX=0.5;exitY=1;exitDx=0;exitDy=0;entryX=0.5;entryY=0;entryDx=0;entryDy=0;" edge="1" parent="1" source="CUGscK_CF5bCiDeowx8U-22" target="CUGscK_CF5bCiDeowx8U-47">
          <mxGeometry relative="1" as="geometry">
            <mxPoint x="1100" y="400" as="sourcePoint" />
            <mxPoint x="1260" y="400" as="targetPoint" />
          </mxGeometry>
        </mxCell>
        <mxCell id="CUGscK_CF5bCiDeowx8U-86" value="" style="endArrow=none;html=1;rounded=0;exitX=1;exitY=0.5;exitDx=0;exitDy=0;entryX=0;entryY=0.5;entryDx=0;entryDy=0;" edge="1" parent="1" source="CUGscK_CF5bCiDeowx8U-59" target="CUGscK_CF5bCiDeowx8U-50">
          <mxGeometry relative="1" as="geometry">
            <mxPoint x="930" y="890" as="sourcePoint" />
            <mxPoint x="1090" y="890" as="targetPoint" />
          </mxGeometry>
        </mxCell>
        <mxCell id="CUGscK_CF5bCiDeowx8U-87" value="" style="endArrow=none;html=1;rounded=0;exitX=1;exitY=0.5;exitDx=0;exitDy=0;entryX=0;entryY=0.5;entryDx=0;entryDy=0;" edge="1" parent="1" source="CUGscK_CF5bCiDeowx8U-58" target="CUGscK_CF5bCiDeowx8U-50">
          <mxGeometry relative="1" as="geometry">
            <mxPoint x="1180" y="890" as="sourcePoint" />
            <mxPoint x="1340" y="890" as="targetPoint" />
          </mxGeometry>
        </mxCell>
        <mxCell id="CUGscK_CF5bCiDeowx8U-88" value="" style="endArrow=none;html=1;rounded=0;exitX=1;exitY=0.5;exitDx=0;exitDy=0;entryX=0;entryY=0.5;entryDx=0;entryDy=0;" edge="1" parent="1" source="CUGscK_CF5bCiDeowx8U-153" target="CUGscK_CF5bCiDeowx8U-50">
          <mxGeometry relative="1" as="geometry">
            <mxPoint x="990" y="630" as="sourcePoint" />
            <mxPoint x="1200" y="730" as="targetPoint" />
          </mxGeometry>
        </mxCell>
        <mxCell id="CUGscK_CF5bCiDeowx8U-89" value="Possuir / Pertencer" style="shape=associativeEntity;whiteSpace=wrap;html=1;align=center;" vertex="1" parent="1">
          <mxGeometry x="1210" y="940" width="140" height="60" as="geometry" />
        </mxCell>
        <mxCell id="CUGscK_CF5bCiDeowx8U-90" value="" style="endArrow=none;html=1;rounded=0;exitX=0.5;exitY=1;exitDx=0;exitDy=0;entryX=0.5;entryY=0;entryDx=0;entryDy=0;" edge="1" parent="1" source="CUGscK_CF5bCiDeowx8U-50" target="CUGscK_CF5bCiDeowx8U-89">
          <mxGeometry relative="1" as="geometry">
            <mxPoint x="1140" y="930" as="sourcePoint" />
            <mxPoint x="1300" y="930" as="targetPoint" />
          </mxGeometry>
        </mxCell>
        <mxCell id="CUGscK_CF5bCiDeowx8U-91" value="ClienteConta" style="text;html=1;align=center;verticalAlign=middle;resizable=0;points=[];autosize=1;strokeColor=none;fillColor=none;" vertex="1" parent="1">
          <mxGeometry x="1185" y="908" width="90" height="30" as="geometry" />
        </mxCell>
        <mxCell id="CUGscK_CF5bCiDeowx8U-92" value="(1, n)" style="text;html=1;align=center;verticalAlign=middle;resizable=0;points=[];autosize=1;strokeColor=none;fillColor=none;" vertex="1" parent="1">
          <mxGeometry x="1275" y="908" width="50" height="30" as="geometry" />
        </mxCell>
        <mxCell id="CUGscK_CF5bCiDeowx8U-93" value="Tipo" style="ellipse;whiteSpace=wrap;html=1;align=center;" vertex="1" parent="1">
          <mxGeometry x="1430" y="860" width="100" height="40" as="geometry" />
        </mxCell>
        <mxCell id="CUGscK_CF5bCiDeowx8U-94" value="Nome" style="ellipse;whiteSpace=wrap;html=1;align=center;" vertex="1" parent="1">
          <mxGeometry x="1490" y="940" width="100" height="40" as="geometry" />
        </mxCell>
        <mxCell id="CUGscK_CF5bCiDeowx8U-96" value="IDCliente" style="ellipse;whiteSpace=wrap;html=1;align=center;" vertex="1" parent="1">
          <mxGeometry x="1460" y="1100" width="100" height="40" as="geometry" />
        </mxCell>
        <mxCell id="CUGscK_CF5bCiDeowx8U-97" value="" style="endArrow=none;html=1;rounded=0;entryX=0;entryY=0.5;entryDx=0;entryDy=0;exitX=1;exitY=0.5;exitDx=0;exitDy=0;" edge="1" parent="1" source="CUGscK_CF5bCiDeowx8U-89" target="CUGscK_CF5bCiDeowx8U-93">
          <mxGeometry relative="1" as="geometry">
            <mxPoint x="1140" y="930" as="sourcePoint" />
            <mxPoint x="1300" y="930" as="targetPoint" />
          </mxGeometry>
        </mxCell>
        <mxCell id="CUGscK_CF5bCiDeowx8U-98" value="" style="endArrow=none;html=1;rounded=0;entryX=0;entryY=0.5;entryDx=0;entryDy=0;exitX=1;exitY=0.5;exitDx=0;exitDy=0;" edge="1" parent="1" source="CUGscK_CF5bCiDeowx8U-89" target="CUGscK_CF5bCiDeowx8U-94">
          <mxGeometry relative="1" as="geometry">
            <mxPoint x="1140" y="930" as="sourcePoint" />
            <mxPoint x="1300" y="930" as="targetPoint" />
          </mxGeometry>
        </mxCell>
        <mxCell id="CUGscK_CF5bCiDeowx8U-99" value="" style="endArrow=none;html=1;rounded=0;entryX=0;entryY=0.5;entryDx=0;entryDy=0;exitX=1;exitY=0.5;exitDx=0;exitDy=0;" edge="1" parent="1" source="CUGscK_CF5bCiDeowx8U-89" target="CUGscK_CF5bCiDeowx8U-154">
          <mxGeometry relative="1" as="geometry">
            <mxPoint x="1140" y="930" as="sourcePoint" />
            <mxPoint x="1490" y="1040" as="targetPoint" />
          </mxGeometry>
        </mxCell>
        <mxCell id="CUGscK_CF5bCiDeowx8U-100" value="" style="endArrow=none;html=1;rounded=0;entryX=0;entryY=0.5;entryDx=0;entryDy=0;exitX=1;exitY=0.5;exitDx=0;exitDy=0;" edge="1" parent="1" source="CUGscK_CF5bCiDeowx8U-89" target="CUGscK_CF5bCiDeowx8U-96">
          <mxGeometry relative="1" as="geometry">
            <mxPoint x="1140" y="930" as="sourcePoint" />
            <mxPoint x="1300" y="930" as="targetPoint" />
          </mxGeometry>
        </mxCell>
        <mxCell id="CUGscK_CF5bCiDeowx8U-101" value="(1, n)" style="text;html=1;align=center;verticalAlign=middle;resizable=0;points=[];autosize=1;strokeColor=none;fillColor=none;" vertex="1" parent="1">
          <mxGeometry x="1300" y="1000" width="50" height="30" as="geometry" />
        </mxCell>
        <mxCell id="CUGscK_CF5bCiDeowx8U-102" value="" style="endArrow=none;html=1;rounded=0;entryX=0.5;entryY=1;entryDx=0;entryDy=0;exitX=0.5;exitY=0;exitDx=0;exitDy=0;" edge="1" parent="1" source="CUGscK_CF5bCiDeowx8U-104" target="CUGscK_CF5bCiDeowx8U-89">
          <mxGeometry relative="1" as="geometry">
            <mxPoint x="1280" y="1120" as="sourcePoint" />
            <mxPoint x="1300" y="930" as="targetPoint" />
          </mxGeometry>
        </mxCell>
        <mxCell id="CUGscK_CF5bCiDeowx8U-104" value="Conta" style="shape=ext;margin=3;double=1;whiteSpace=wrap;html=1;align=center;" vertex="1" parent="1">
          <mxGeometry x="1231" y="1180" width="100" height="40" as="geometry" />
        </mxCell>
        <mxCell id="CUGscK_CF5bCiDeowx8U-105" value="Data abertura" style="ellipse;whiteSpace=wrap;html=1;align=center;" vertex="1" parent="1">
          <mxGeometry x="930" y="1201" width="100" height="40" as="geometry" />
        </mxCell>
        <mxCell id="CUGscK_CF5bCiDeowx8U-106" value="Número conta" style="ellipse;whiteSpace=wrap;html=1;align=center;" vertex="1" parent="1">
          <mxGeometry x="930" y="1270" width="100" height="40" as="geometry" />
        </mxCell>
        <mxCell id="CUGscK_CF5bCiDeowx8U-107" value="Saldo" style="ellipse;whiteSpace=wrap;html=1;align=center;" vertex="1" parent="1">
          <mxGeometry x="960" y="1340" width="100" height="40" as="geometry" />
        </mxCell>
        <mxCell id="CUGscK_CF5bCiDeowx8U-108" value="Tipo" style="ellipse;whiteSpace=wrap;html=1;align=center;" vertex="1" parent="1">
          <mxGeometry x="1010" y="1400" width="100" height="40" as="geometry" />
        </mxCell>
        <mxCell id="CUGscK_CF5bCiDeowx8U-109" value="" style="endArrow=none;html=1;rounded=0;entryX=0;entryY=0.5;entryDx=0;entryDy=0;exitX=1;exitY=0.5;exitDx=0;exitDy=0;" edge="1" parent="1" source="CUGscK_CF5bCiDeowx8U-105" target="CUGscK_CF5bCiDeowx8U-104">
          <mxGeometry relative="1" as="geometry">
            <mxPoint x="1140" y="1330" as="sourcePoint" />
            <mxPoint x="1300" y="1330" as="targetPoint" />
          </mxGeometry>
        </mxCell>
        <mxCell id="CUGscK_CF5bCiDeowx8U-110" value="" style="endArrow=none;html=1;rounded=0;entryX=0;entryY=0.5;entryDx=0;entryDy=0;exitX=1;exitY=0.5;exitDx=0;exitDy=0;exitPerimeter=0;" edge="1" parent="1" source="CUGscK_CF5bCiDeowx8U-106" target="CUGscK_CF5bCiDeowx8U-104">
          <mxGeometry relative="1" as="geometry">
            <mxPoint x="1140" y="1330" as="sourcePoint" />
            <mxPoint x="1300" y="1330" as="targetPoint" />
          </mxGeometry>
        </mxCell>
        <mxCell id="CUGscK_CF5bCiDeowx8U-111" value="" style="endArrow=none;html=1;rounded=0;entryX=0;entryY=0.5;entryDx=0;entryDy=0;exitX=1;exitY=0.5;exitDx=0;exitDy=0;" edge="1" parent="1" source="CUGscK_CF5bCiDeowx8U-107" target="CUGscK_CF5bCiDeowx8U-104">
          <mxGeometry relative="1" as="geometry">
            <mxPoint x="1140" y="1330" as="sourcePoint" />
            <mxPoint x="1300" y="1330" as="targetPoint" />
          </mxGeometry>
        </mxCell>
        <mxCell id="CUGscK_CF5bCiDeowx8U-112" value="" style="endArrow=none;html=1;rounded=0;entryX=0;entryY=0.5;entryDx=0;entryDy=0;exitX=1;exitY=0.5;exitDx=0;exitDy=0;" edge="1" parent="1" source="CUGscK_CF5bCiDeowx8U-108" target="CUGscK_CF5bCiDeowx8U-104">
          <mxGeometry relative="1" as="geometry">
            <mxPoint x="1140" y="1330" as="sourcePoint" />
            <mxPoint x="1300" y="1330" as="targetPoint" />
          </mxGeometry>
        </mxCell>
        <mxCell id="CUGscK_CF5bCiDeowx8U-113" value="Fazer / Feito" style="shape=rhombus;perimeter=rhombusPerimeter;whiteSpace=wrap;html=1;align=center;" vertex="1" parent="1">
          <mxGeometry x="1640" y="659" width="120" height="60" as="geometry" />
        </mxCell>
        <mxCell id="CUGscK_CF5bCiDeowx8U-114" value="" style="endArrow=none;html=1;rounded=0;exitX=1;exitY=0.5;exitDx=0;exitDy=0;entryX=0;entryY=0.5;entryDx=0;entryDy=0;" edge="1" parent="1" source="CUGscK_CF5bCiDeowx8U-50" target="CUGscK_CF5bCiDeowx8U-113">
          <mxGeometry relative="1" as="geometry">
            <mxPoint x="1500" y="730" as="sourcePoint" />
            <mxPoint x="1660" y="730" as="targetPoint" />
          </mxGeometry>
        </mxCell>
        <mxCell id="CUGscK_CF5bCiDeowx8U-115" value="(1, 1)" style="text;html=1;align=center;verticalAlign=middle;resizable=0;points=[];autosize=1;strokeColor=none;fillColor=none;" vertex="1" parent="1">
          <mxGeometry x="1325" y="668" width="50" height="30" as="geometry" />
        </mxCell>
        <mxCell id="CUGscK_CF5bCiDeowx8U-116" value="Empréstimo" style="shape=ext;margin=3;double=1;whiteSpace=wrap;html=1;align=center;" vertex="1" parent="1">
          <mxGeometry x="2140" y="668" width="100" height="40" as="geometry" />
        </mxCell>
        <mxCell id="CUGscK_CF5bCiDeowx8U-117" value="" style="endArrow=none;html=1;rounded=0;exitX=1;exitY=0.5;exitDx=0;exitDy=0;entryX=0;entryY=0.5;entryDx=0;entryDy=0;" edge="1" parent="1" source="CUGscK_CF5bCiDeowx8U-113" target="CUGscK_CF5bCiDeowx8U-116">
          <mxGeometry relative="1" as="geometry">
            <mxPoint x="1880" y="730" as="sourcePoint" />
            <mxPoint x="2040" y="730" as="targetPoint" />
          </mxGeometry>
        </mxCell>
        <mxCell id="CUGscK_CF5bCiDeowx8U-119" value="IDCliente" style="ellipse;whiteSpace=wrap;html=1;align=center;fontStyle=4;" vertex="1" parent="1">
          <mxGeometry x="1940" y="460" width="100" height="40" as="geometry" />
        </mxCell>
        <mxCell id="CUGscK_CF5bCiDeowx8U-120" value="Valor" style="ellipse;whiteSpace=wrap;html=1;align=center;" vertex="1" parent="1">
          <mxGeometry x="2070" y="420" width="100" height="40" as="geometry" />
        </mxCell>
        <mxCell id="CUGscK_CF5bCiDeowx8U-121" value="Status" style="ellipse;whiteSpace=wrap;html=1;align=center;" vertex="1" parent="1">
          <mxGeometry x="2200" y="420" width="100" height="40" as="geometry" />
        </mxCell>
        <mxCell id="CUGscK_CF5bCiDeowx8U-122" value="Nome" style="ellipse;whiteSpace=wrap;html=1;align=center;" vertex="1" parent="1">
          <mxGeometry x="2330" y="460" width="100" height="40" as="geometry" />
        </mxCell>
        <mxCell id="CUGscK_CF5bCiDeowx8U-123" value="Prazo" style="ellipse;whiteSpace=wrap;html=1;align=center;" vertex="1" parent="1">
          <mxGeometry x="2360" y="560" width="100" height="40" as="geometry" />
        </mxCell>
        <mxCell id="CUGscK_CF5bCiDeowx8U-124" value="IDEmprestimo" style="ellipse;whiteSpace=wrap;html=1;align=center;fontStyle=4;" vertex="1" parent="1">
          <mxGeometry x="1940" y="560" width="100" height="40" as="geometry" />
        </mxCell>
        <mxCell id="CUGscK_CF5bCiDeowx8U-125" value="" style="endArrow=none;html=1;rounded=0;exitX=1;exitY=0.5;exitDx=0;exitDy=0;entryX=0.5;entryY=0;entryDx=0;entryDy=0;" edge="1" parent="1" source="CUGscK_CF5bCiDeowx8U-124" target="CUGscK_CF5bCiDeowx8U-116">
          <mxGeometry relative="1" as="geometry">
            <mxPoint x="1980" y="660" as="sourcePoint" />
            <mxPoint x="2140" y="660" as="targetPoint" />
          </mxGeometry>
        </mxCell>
        <mxCell id="CUGscK_CF5bCiDeowx8U-126" value="" style="endArrow=none;html=1;rounded=0;exitX=1;exitY=0.5;exitDx=0;exitDy=0;entryX=0.5;entryY=0;entryDx=0;entryDy=0;" edge="1" parent="1" source="CUGscK_CF5bCiDeowx8U-119" target="CUGscK_CF5bCiDeowx8U-116">
          <mxGeometry relative="1" as="geometry">
            <mxPoint x="1980" y="660" as="sourcePoint" />
            <mxPoint x="2140" y="660" as="targetPoint" />
          </mxGeometry>
        </mxCell>
        <mxCell id="CUGscK_CF5bCiDeowx8U-127" value="" style="endArrow=none;html=1;rounded=0;exitX=0.5;exitY=1;exitDx=0;exitDy=0;entryX=0.5;entryY=0;entryDx=0;entryDy=0;" edge="1" parent="1" source="CUGscK_CF5bCiDeowx8U-120" target="CUGscK_CF5bCiDeowx8U-116">
          <mxGeometry relative="1" as="geometry">
            <mxPoint x="1980" y="660" as="sourcePoint" />
            <mxPoint x="2140" y="660" as="targetPoint" />
          </mxGeometry>
        </mxCell>
        <mxCell id="CUGscK_CF5bCiDeowx8U-128" value="" style="endArrow=none;html=1;rounded=0;exitX=0.5;exitY=1;exitDx=0;exitDy=0;entryX=0.5;entryY=0;entryDx=0;entryDy=0;" edge="1" parent="1" source="CUGscK_CF5bCiDeowx8U-121" target="CUGscK_CF5bCiDeowx8U-116">
          <mxGeometry relative="1" as="geometry">
            <mxPoint x="1980" y="660" as="sourcePoint" />
            <mxPoint x="2140" y="660" as="targetPoint" />
          </mxGeometry>
        </mxCell>
        <mxCell id="CUGscK_CF5bCiDeowx8U-129" value="" style="endArrow=none;html=1;rounded=0;exitX=0;exitY=0.5;exitDx=0;exitDy=0;entryX=0.5;entryY=0;entryDx=0;entryDy=0;" edge="1" parent="1" source="CUGscK_CF5bCiDeowx8U-122" target="CUGscK_CF5bCiDeowx8U-116">
          <mxGeometry relative="1" as="geometry">
            <mxPoint x="1980" y="660" as="sourcePoint" />
            <mxPoint x="2140" y="660" as="targetPoint" />
          </mxGeometry>
        </mxCell>
        <mxCell id="CUGscK_CF5bCiDeowx8U-130" value="" style="endArrow=none;html=1;rounded=0;entryX=0;entryY=0.5;entryDx=0;entryDy=0;exitX=0.5;exitY=0;exitDx=0;exitDy=0;" edge="1" parent="1" source="CUGscK_CF5bCiDeowx8U-116" target="CUGscK_CF5bCiDeowx8U-123">
          <mxGeometry relative="1" as="geometry">
            <mxPoint x="1980" y="660" as="sourcePoint" />
            <mxPoint x="2140" y="660" as="targetPoint" />
          </mxGeometry>
        </mxCell>
        <mxCell id="CUGscK_CF5bCiDeowx8U-131" value="(0, 1)" style="text;html=1;align=center;verticalAlign=middle;resizable=0;points=[];autosize=1;strokeColor=none;fillColor=none;" vertex="1" parent="1">
          <mxGeometry x="2095" y="659" width="50" height="30" as="geometry" />
        </mxCell>
        <mxCell id="CUGscK_CF5bCiDeowx8U-132" value="Conter / Contido" style="shape=rhombus;perimeter=rhombusPerimeter;whiteSpace=wrap;html=1;align=center;" vertex="1" parent="1">
          <mxGeometry x="2130" y="930" width="120" height="60" as="geometry" />
        </mxCell>
        <mxCell id="CUGscK_CF5bCiDeowx8U-133" value="" style="endArrow=none;html=1;rounded=0;exitX=0.5;exitY=1;exitDx=0;exitDy=0;entryX=0.5;entryY=0;entryDx=0;entryDy=0;" edge="1" parent="1" source="CUGscK_CF5bCiDeowx8U-116" target="CUGscK_CF5bCiDeowx8U-132">
          <mxGeometry relative="1" as="geometry">
            <mxPoint x="1980" y="860" as="sourcePoint" />
            <mxPoint x="2140" y="860" as="targetPoint" />
          </mxGeometry>
        </mxCell>
        <mxCell id="CUGscK_CF5bCiDeowx8U-134" value="(1, 1)" style="text;html=1;align=center;verticalAlign=middle;resizable=0;points=[];autosize=1;strokeColor=none;fillColor=none;" vertex="1" parent="1">
          <mxGeometry x="2140" y="710" width="50" height="30" as="geometry" />
        </mxCell>
        <mxCell id="CUGscK_CF5bCiDeowx8U-135" value="Status" style="ellipse;whiteSpace=wrap;html=1;align=center;" vertex="1" parent="1">
          <mxGeometry x="1820" y="1070" width="100" height="40" as="geometry" />
        </mxCell>
        <mxCell id="CUGscK_CF5bCiDeowx8U-136" value="Valor" style="ellipse;whiteSpace=wrap;html=1;align=center;" vertex="1" parent="1">
          <mxGeometry x="1770" y="1161" width="100" height="40" as="geometry" />
        </mxCell>
        <mxCell id="CUGscK_CF5bCiDeowx8U-137" value="IDPagamento" style="ellipse;whiteSpace=wrap;html=1;align=center;fontStyle=4;" vertex="1" parent="1">
          <mxGeometry x="1830" y="1241" width="100" height="40" as="geometry" />
        </mxCell>
        <mxCell id="CUGscK_CF5bCiDeowx8U-138" value="IDEmprestimo" style="ellipse;whiteSpace=wrap;html=1;align=center;fontStyle=4;" vertex="1" parent="1">
          <mxGeometry x="1950" y="1300" width="100" height="40" as="geometry" />
        </mxCell>
        <mxCell id="CUGscK_CF5bCiDeowx8U-139" value="Data pagamento" style="ellipse;whiteSpace=wrap;html=1;align=center;" vertex="1" parent="1">
          <mxGeometry x="1950" y="1000" width="100" height="40" as="geometry" />
        </mxCell>
        <mxCell id="CUGscK_CF5bCiDeowx8U-141" value="Pagamentos" style="shape=ext;margin=3;double=1;whiteSpace=wrap;html=1;align=center;" vertex="1" parent="1">
          <mxGeometry x="2140" y="1140" width="100" height="40" as="geometry" />
        </mxCell>
        <mxCell id="CUGscK_CF5bCiDeowx8U-143" value="" style="endArrow=none;html=1;rounded=0;entryX=0;entryY=0.5;entryDx=0;entryDy=0;exitX=0.5;exitY=1;exitDx=0;exitDy=0;" edge="1" parent="1" source="CUGscK_CF5bCiDeowx8U-139" target="CUGscK_CF5bCiDeowx8U-141">
          <mxGeometry relative="1" as="geometry">
            <mxPoint x="1990" y="1100" as="sourcePoint" />
            <mxPoint x="2150" y="1100" as="targetPoint" />
          </mxGeometry>
        </mxCell>
        <mxCell id="CUGscK_CF5bCiDeowx8U-144" value="" style="endArrow=none;html=1;rounded=0;entryX=0;entryY=0.5;entryDx=0;entryDy=0;exitX=1;exitY=0.5;exitDx=0;exitDy=0;" edge="1" parent="1" source="CUGscK_CF5bCiDeowx8U-135" target="CUGscK_CF5bCiDeowx8U-141">
          <mxGeometry relative="1" as="geometry">
            <mxPoint x="1990" y="1100" as="sourcePoint" />
            <mxPoint x="2150" y="1100" as="targetPoint" />
          </mxGeometry>
        </mxCell>
        <mxCell id="CUGscK_CF5bCiDeowx8U-145" value="" style="endArrow=none;html=1;rounded=0;entryX=0;entryY=0.5;entryDx=0;entryDy=0;exitX=1;exitY=0.5;exitDx=0;exitDy=0;" edge="1" parent="1" source="CUGscK_CF5bCiDeowx8U-136" target="CUGscK_CF5bCiDeowx8U-141">
          <mxGeometry relative="1" as="geometry">
            <mxPoint x="1990" y="1100" as="sourcePoint" />
            <mxPoint x="2150" y="1100" as="targetPoint" />
          </mxGeometry>
        </mxCell>
        <mxCell id="CUGscK_CF5bCiDeowx8U-146" value="" style="endArrow=none;html=1;rounded=0;entryX=0;entryY=0.5;entryDx=0;entryDy=0;exitX=1;exitY=0.5;exitDx=0;exitDy=0;" edge="1" parent="1" source="CUGscK_CF5bCiDeowx8U-137" target="CUGscK_CF5bCiDeowx8U-141">
          <mxGeometry relative="1" as="geometry">
            <mxPoint x="1990" y="1100" as="sourcePoint" />
            <mxPoint x="2150" y="1100" as="targetPoint" />
          </mxGeometry>
        </mxCell>
        <mxCell id="CUGscK_CF5bCiDeowx8U-147" value="" style="endArrow=none;html=1;rounded=0;entryX=0;entryY=0.5;entryDx=0;entryDy=0;exitX=1;exitY=0.5;exitDx=0;exitDy=0;" edge="1" parent="1" source="CUGscK_CF5bCiDeowx8U-138" target="CUGscK_CF5bCiDeowx8U-141">
          <mxGeometry relative="1" as="geometry">
            <mxPoint x="1990" y="1100" as="sourcePoint" />
            <mxPoint x="2150" y="1100" as="targetPoint" />
          </mxGeometry>
        </mxCell>
        <mxCell id="CUGscK_CF5bCiDeowx8U-148" value="" style="endArrow=none;html=1;rounded=0;entryX=0.5;entryY=1;entryDx=0;entryDy=0;" edge="1" parent="1" source="CUGscK_CF5bCiDeowx8U-141" target="CUGscK_CF5bCiDeowx8U-132">
          <mxGeometry relative="1" as="geometry">
            <mxPoint x="1990" y="1100" as="sourcePoint" />
            <mxPoint x="2150" y="1100" as="targetPoint" />
          </mxGeometry>
        </mxCell>
        <mxCell id="CUGscK_CF5bCiDeowx8U-149" value="(1, 1)" style="text;html=1;align=center;verticalAlign=middle;resizable=0;points=[];autosize=1;strokeColor=none;fillColor=none;" vertex="1" parent="1">
          <mxGeometry x="2145" y="978" width="50" height="30" as="geometry" />
        </mxCell>
        <mxCell id="CUGscK_CF5bCiDeowx8U-150" value="(0, n)" style="text;html=1;align=center;verticalAlign=middle;resizable=0;points=[];autosize=1;strokeColor=none;fillColor=none;" vertex="1" parent="1">
          <mxGeometry x="2145" y="1110" width="50" height="30" as="geometry" />
        </mxCell>
        <mxCell id="CUGscK_CF5bCiDeowx8U-151" value="IDDepartamento" style="ellipse;whiteSpace=wrap;html=1;align=center;fontStyle=4;" vertex="1" parent="1">
          <mxGeometry x="160" y="180" width="100" height="40" as="geometry" />
        </mxCell>
        <mxCell id="CUGscK_CF5bCiDeowx8U-152" value="IDColaborador" style="ellipse;whiteSpace=wrap;html=1;align=center;fontStyle=4;" vertex="1" parent="1">
          <mxGeometry x="1490" y="10" width="100" height="40" as="geometry" />
        </mxCell>
        <mxCell id="CUGscK_CF5bCiDeowx8U-153" value="IDCliente" style="ellipse;whiteSpace=wrap;html=1;align=center;fontStyle=4;" vertex="1" parent="1">
          <mxGeometry x="871" y="635" width="100" height="40" as="geometry" />
        </mxCell>
        <mxCell id="CUGscK_CF5bCiDeowx8U-154" value="IDConta" style="ellipse;whiteSpace=wrap;html=1;align=center;fontStyle=4;" vertex="1" parent="1">
          <mxGeometry x="1510" y="1020" width="100" height="40" as="geometry" />
        </mxCell>
      </root>
    </mxGraphModel>
  </diagram>
</mxfile>
